<?xml version="1.0" encoding="UTF-8"?>
<svg width="32" height="32" viewBox="0 0 32 32" xmlns="http://www.w3.org/2000/svg">
  <path fill="#D4202C" d="M27.5 16c-1.1 0-2.1.3-3 .8l-2.6-4.2C22.6 11.1 23 9.6 23 8c0-3.9-3.1-7-7-7s-7 3.1-7 7c0 1.6.4 3.1 1.1 4.6l-2.6 4.2c-.9-.5-1.9-.8-3-.8C1.7 16 0 17.7 0 20.5S1.7 25 4.5 25c2.3 0 4.2-1.6 4.7-3.8l4.2-2.6c.5.9.8 1.9.8 3 0 3.9 3.1 7 7 7s7-3.1 7-7c0-1.1-.3-2.1-.8-3l4.2-2.6c.5 2.2 2.4 3.8 4.7 3.8 2.8 0 5-2.2 5-5s-2.2-5-5-5zM4.5 22c-1.4 0-2.5-1.1-2.5-2.5S3.1 17 4.5 17s2.5 1.1 2.5 2.5S5.9 22 4.5 22zm11-14c0-2.2 1.8-4 4-4s4 1.8 4 4-1.8 4-4 4-4-1.8-4-4zm4 19c-2.2 0-4-1.8-4-4s1.8-4 4-4 4 1.8 4 4-1.8 4-4 4zm12-5c-1.4 0-2.5-1.1-2.5-2.5s1.1-2.5 2.5-2.5 2.5 1.1 2.5 2.5-1.1 2.5-2.5 2.5z"/>
</svg>
